<svg viewBox="0 0 276 53" fill="none" xmlns="http://www.w3.org/2000/svg"><path d="M0 10C0 4.477 4.477 0 10 0h33c5.523 0 10 4.477 10 10v33c0 5.523-4.477 10-10 10H10C4.477 53 0 48.523 0 43V10z" fill="#1072EB"/><path fill-rule="evenodd" clip-rule="evenodd" d="M22.321 13.06a9.92 9.92 0 0 1 11.393 6.287 9.917 9.917 0 0 1-1.38 19.736h-14.25A8.333 8.333 0 0 1 9.75 30.75m15.747-13.808a5.921 5.921 0 0 0-6.86 7.17 2 2 0 0 1-1.507 2.41 4.335 4.335 0 0 0 .953 8.561h14.25a5.918 5.918 0 1 0-.118-11.832 2 2 0 0 1-2.003-1.619 5.92 5.92 0 0 0-4.715-4.69zM9.75 30.75a8.335 8.335 0 0 1 4.741-7.52 9.922 9.922 0 0 1 7.83-10.17" fill="#fff"/><path d="M81.696 34.846a4.4 4.4 0 0 0-.274-1.598c-.167-.487-.487-.928-.959-1.324-.471-.411-1.133-.814-1.986-1.21-.852-.396-1.955-.807-3.31-1.233a41.896 41.896 0 0 1-4.291-1.643c-1.34-.61-2.527-1.317-3.562-2.123-1.02-.822-1.826-1.773-2.42-2.854-.578-1.08-.867-2.336-.867-3.767 0-1.384.305-2.64.913-3.766.61-1.142 1.461-2.116 2.557-2.922 1.096-.822 2.39-1.454 3.88-1.895 1.508-.441 3.159-.662 4.955-.662 2.45 0 4.588.441 6.414 1.324 1.827.883 3.242 2.093 4.246 3.63 1.02 1.537 1.53 3.295 1.53 5.273h-6.803c0-.974-.205-1.826-.616-2.557-.396-.745-1.005-1.331-1.827-1.757-.806-.427-1.826-.64-3.059-.64-1.187 0-2.176.183-2.967.548-.792.35-1.385.83-1.78 1.438a3.54 3.54 0 0 0-.594 2.01c0 .562.137 1.072.41 1.529.29.456.716.882 1.279 1.278s1.255.769 2.077 1.119c.822.35 1.773.692 2.854 1.027 1.81.548 3.401 1.164 4.77 1.85 1.386.684 2.542 1.452 3.47 2.305.93.852 1.63 1.818 2.101 2.899.472 1.08.708 2.306.708 3.675 0 1.446-.282 2.74-.845 3.881a7.972 7.972 0 0 1-2.443 2.9c-1.065.79-2.336 1.392-3.812 1.803-1.476.41-3.127.616-4.954.616-1.643 0-3.264-.213-4.862-.64a14.767 14.767 0 0 1-4.36-1.985 10.01 10.01 0 0 1-3.105-3.379c-.776-1.37-1.164-2.99-1.164-4.862h6.871c0 1.035.16 1.91.48 2.625.32.715.768 1.294 1.346 1.735.594.441 1.294.76 2.1.959.822.198 1.72.296 2.694.296 1.187 0 2.161-.167 2.922-.502.776-.335 1.347-.799 1.712-1.392.381-.594.571-1.263.571-2.01zm24.426 3.127V26.97c0-.791-.129-1.468-.388-2.032a2.89 2.89 0 0 0-1.21-1.346c-.532-.32-1.225-.48-2.077-.48-.731 0-1.362.13-1.895.388a2.745 2.745 0 0 0-1.233 1.073c-.289.457-.433.997-.433 1.621H92.31c0-1.05.244-2.047.73-2.99.488-.944 1.195-1.774 2.124-2.489.928-.73 2.031-1.301 3.31-1.712 1.294-.41 2.739-.616 4.337-.616 1.918 0 3.622.32 5.114.959 1.491.639 2.663 1.598 3.515 2.876.868 1.278 1.301 2.876 1.301 4.794v10.57c0 1.354.084 2.465.252 3.332.167.852.41 1.598.73 2.237v.388h-6.643c-.32-.67-.563-1.506-.73-2.51a20.585 20.585 0 0 1-.229-3.06zm.868-9.473.045 3.72h-3.675c-.867 0-1.621.1-2.26.297-.639.198-1.164.48-1.575.845-.41.35-.715.761-.913 1.233-.183.471-.274.989-.274 1.552 0 .563.13 1.073.388 1.53.259.441.632.791 1.118 1.05.488.243 1.058.365 1.713.365.989 0 1.849-.198 2.579-.594.731-.395 1.294-.882 1.689-1.46.411-.579.624-1.127.64-1.644l1.735 2.785c-.244.624-.579 1.27-1.005 1.94a9.071 9.071 0 0 1-1.575 1.895c-.639.578-1.408 1.058-2.306 1.438-.898.365-1.963.548-3.196.548-1.567 0-2.99-.312-4.268-.936-1.263-.64-2.268-1.514-3.014-2.625-.73-1.126-1.095-2.405-1.095-3.835 0-1.294.243-2.443.73-3.447a6.724 6.724 0 0 1 2.146-2.534c.959-.7 2.153-1.225 3.584-1.576 1.43-.365 3.089-.547 4.976-.547h3.813zm19.198 15.043h-6.62V16.652c0-1.872.365-3.447 1.096-4.726a7.16 7.16 0 0 1 3.127-2.922c1.355-.67 2.96-1.004 4.818-1.004.607 0 1.193.046 1.758.137.562.076 1.109.175 1.642.297l-.068 4.953a5.695 5.695 0 0 0-.914-.16c-.319-.03-.692-.045-1.117-.045-.792 0-1.47.137-2.032.41a2.742 2.742 0 0 0-1.256 1.165c-.289.518-.434 1.15-.434 1.895v26.891zm4.931-24.7V23.5h-15.226v-4.657h15.226zM145.386 44c-1.916 0-3.637-.304-5.158-.913-1.522-.624-2.816-1.484-3.882-2.58a11.46 11.46 0 0 1-2.418-3.812c-.565-1.461-.845-3.013-.845-4.657v-.913c0-1.872.266-3.584.798-5.136.533-1.553 1.293-2.9 2.283-4.041a10.03 10.03 0 0 1 3.653-2.625c1.43-.624 3.043-.936 4.839-.936 1.75 0 3.303.289 4.658.867 1.354.579 2.487 1.4 3.4 2.466.929 1.065 1.629 2.343 2.101 3.835.472 1.476.707 3.12.707 4.93v2.74H135.89v-4.383h13.173v-.502c0-.913-.169-1.727-.504-2.443a3.867 3.867 0 0 0-1.46-1.735c-.654-.426-1.491-.639-2.512-.639-.866 0-1.613.19-2.236.57-.624.381-1.135.914-1.531 1.599-.38.685-.668 1.491-.866 2.42a15.44 15.44 0 0 0-.274 3.013v.913c0 .99.137 1.902.411 2.74.288.836.692 1.56 1.209 2.168a5.518 5.518 0 0 0 1.919 1.415c.76.335 1.62.503 2.579.503 1.187 0 2.291-.229 3.31-.685 1.035-.472 1.925-1.18 2.671-2.123l3.196 3.47c-.519.745-1.226 1.46-2.124 2.145-.882.685-1.948 1.248-3.196 1.69-1.247.426-2.67.639-4.269.639zm22.099-.457h-6.599V17.725c0-2.1.427-3.873 1.28-5.32.866-1.445 2.099-2.54 3.698-3.286C167.477 8.373 169.425 8 171.708 8c1.293 0 2.549.13 3.766.388 1.218.244 2.474.563 3.767.959l-.958 5.273a42.768 42.768 0 0 0-2.695-.73c-.958-.229-2.115-.343-3.47-.343-1.521 0-2.678.358-3.469 1.073-.776.7-1.164 1.735-1.164 3.105v25.818zm4.907-24.7V23.5h-15.18v-4.657h15.18zm9.908 0v24.7h-6.598v-24.7h6.598zM194.741 8.48v35.064h-6.597V8.48h6.597zM211.542 44c-1.917 0-3.637-.304-5.158-.913-1.523-.624-2.816-1.484-3.881-2.58a11.466 11.466 0 0 1-2.42-3.812 12.859 12.859 0 0 1-.844-4.657v-.913c0-1.872.266-3.584.799-5.136.531-1.553 1.293-2.9 2.282-4.041a10.035 10.035 0 0 1 3.652-2.625c1.431-.624 3.044-.936 4.841-.936 1.75 0 3.302.289 4.656.867 1.355.579 2.489 1.4 3.401 2.466.929 1.065 1.628 2.343 2.1 3.835.473 1.476.708 3.12.708 4.93v2.74h-19.631v-4.383h13.171v-.502c0-.913-.168-1.727-.503-2.443a3.873 3.873 0 0 0-1.46-1.735c-.655-.426-1.492-.639-2.511-.639-.868 0-1.614.19-2.238.57-.623.381-1.133.914-1.528 1.599-.381.685-.671 1.491-.868 2.42a15.36 15.36 0 0 0-.275 3.013v.913c0 .99.137 1.902.412 2.74.288.836.692 1.56 1.209 2.168a5.524 5.524 0 0 0 1.918 1.415c.761.335 1.621.503 2.58.503 1.187 0 2.29-.229 3.31-.685 1.034-.472 1.924-1.18 2.671-2.123l3.196 3.47c-.517.745-1.225 1.46-2.124 2.145-.882.685-1.948 1.248-3.195 1.69-1.248.426-2.671.639-4.27.639zm20.454-35.543v35.086h-6.573V8.457h6.573zm15.57 10.386L236.837 31.08l-5.754 5.821-2.397-4.748 4.566-5.798 6.415-7.51h7.899zm-6.826 24.7-7.305-11.414 4.542-3.972 10.342 15.386h-7.579zm24.266-5.912V18.843h6.575v24.7h-6.187l-.388-5.912zm.731-5.068 1.94-.046c0 1.644-.19 3.173-.57 4.589-.38 1.4-.952 2.617-1.713 3.652a7.991 7.991 0 0 1-2.877 2.397c-1.156.563-2.518.845-4.086.845-1.201 0-2.312-.167-3.332-.502a6.769 6.769 0 0 1-2.602-1.621c-.715-.746-1.28-1.697-1.689-2.854-.396-1.171-.594-2.58-.594-4.223V18.843h6.575v16.003c0 .73.082 1.347.251 1.849.182.502.433.913.752 1.233.32.32.692.547 1.119.684.441.137.929.206 1.46.206 1.355 0 2.421-.274 3.197-.822.791-.548 1.346-1.293 1.666-2.237.335-.959.503-2.024.503-3.196z" fill="#4B5563"/></svg>